<svg xmlns="http://www.w3.org/2000/svg" id="uuid-f6dbd49f-8a70-4976-b465-6e082152ee4d" data-name="NYP" viewBox="0 0 175.4 53.7"><defs><style>.uuid-79f038f7-3a38-462a-bb8b-0fa6088af2cc{fill:#009a44;stroke-width:0}.uuid-5061feb6-812e-48a5-8f00-f171175eabac,.uuid-602f0812-a3d2-40bb-8e34-70640c374b9d{stroke-width:0}.uuid-5061feb6-812e-48a5-8f00-f171175eabac{fill:#da291c}.uuid-602f0812-a3d2-40bb-8e34-70640c374b9d{fill:#fff}</style></defs><path d="M172.7 14.3h-53.6l-2-1.7A50 50 0 0 0 83.8 0H81v5.5a25 25 0 0 0-13 8.8H0v29.8h68a24.5 24.5 0 0 0 39.1 0h68.3V14.3z" class="uuid-602f0812-a3d2-40bb-8e34-70640c374b9d"/><path d="M172.7 17h-59.5l2-2.4s-6-5.7-14.4-8.8c-9-3.3-17-3-17-3v5c-5.8 1-11 4.4-14.1 9.2h-67v24.5h67a21.6 21.6 0 0 0 36 0h67z" class="uuid-602f0812-a3d2-40bb-8e34-70640c374b9d"/><path d="M83.8 47.4a19 19 0 0 1-12.4-9.1H5.8v-18h65.6c2.6-4.7 7-8.1 12.4-9.2V7.8c-5.9 1-11 4.5-14.1 9.2h-67v24.5h67a22 22 0 0 0 14 9.2zm6.2.3L87 51h.7c7.5 0 14.1-3.8 18-9.5h67V17h-55.9l-2.8 3.2h55.6v18H104c-2.9 5.2-8 8.8-14 9.5" class="uuid-79f038f7-3a38-462a-bb8b-0fa6088af2cc"/><path d="M87 6c8.9.6 17.1 3.9 23.8 9l-4.5 5.2h4.2l4.9-5.6A48 48 0 0 0 83.8 2.7v17.5H87zm0 36.2v-3.9h-3.2v12.4l10.9-12.4h-4.3z" class="uuid-5061feb6-812e-48a5-8f00-f171175eabac"/><path d="M88.5 14.6V10h-.7v-.6h2v.6h-.7v4.5zm3.5-2.9V9.5h.5v5h-.6v-2.2h-1v2.3h-.5v-5h.6v2.1zm2.7-2.2v.6h-1v1.6h1v.6h-1V14h1v.6h-1.6v-5zM89 20.2h-.2q-1 0-1-.9V16q0-.9 1-.9h.2q1 0 1 1v3.2q0 1-1 1m0-4.6h-.2q-.4 0-.4.4v3.3q0 .4.4.4h.2q.3 0 .3-.4V16q0-.3-.3-.4m3.6 2.9v1.7H92v-1.7q0-.4-.5-.4h-.4v2h-.5v-5h1q1 0 1 1v1q0 .6-.5.7.5.1.5.7m-1-2.8h-.5v1.9h.4q.5 0 .5-.5v-1q0-.4-.4-.4m2.2 4.5h-.6v-5h.6zm1.7-2.2v-.5h1v1.8q0 1-1 1h-.1q-1 0-1-1V16q0-.9 1-.9h.2q.9 0 .9 1v.6h-.6V16q0-.4-.3-.4h-.2q-.4 0-.4.4v3.3q0 .4.4.4h.2q.4 0 .4-.4V18zm2.2 2.2h-.6v-5h.6zm2.3-5h.5v5h-.7l-.9-4v4h-.5v-5h.7l.9 3.6zm3.4 5h-.6l-.1-.8h-1v.8h-.6l.8-5h.7zm-1.6-1.4h.8l-.4-2.8zm2.7-3.6v4.5h1v.5h-1.6v-5z" class="uuid-5061feb6-812e-48a5-8f00-f171175eabac"/><path d="M17.4 22.9h3.5v12.7h-3.1l-5.5-7v7H8.8V23h3.3l5.3 6.7zm8.5 7.7h6.2v-2.8h-6.2v-2h6.8v-3H22.4v12.8h10.4v-3h-6.9zm21.7-.4L45 22.9h-3l-2.5 7.3-2.2-7.3h-3.8L38 35.6h3l2.6-7.3 2.6 7.3h3l4.4-12.7h-3.7zm18.2-7.3-2.6 4.6-2.6-4.6h-4l4.8 8v4.7H65v-4.8l4.8-8zm16.5 6.3c0 3.7-3 6.7-6.9 6.7s-6.9-3-6.9-6.6c0-3.8 3-6.7 7-6.7s6.8 3 6.8 6.6m-3.6 0c0-1.8-1.3-3.4-3.3-3.4s-3.2 1.6-3.2 3.4c0 1.9 1.3 3.5 3.2 3.5s3.3-1.6 3.3-3.4m13.4 2 3 4.4h-3.6l-2.6-3.8h-2v3.8h-3.1V23h5.7q2.9 0 4.1 1.3a4 4 0 0 1 1.1 3q-.1 3-2.6 4m-1-3.8q0-1.5-1.8-1.5h-2.4v3h2.4q1.9 0 1.9-1.4m31.8 0c0 3-2.3 4.6-5.5 4.6h-1.7v3.6H112v-13h5.5c3.2 0 5.3 1.7 5.3 4.5Zm-3.6.1q0-1.6-2-1.7h-1.7v3.4h1.7q2-.1 2-1.7m4.6 8.1h3.4v-13H124zm4.7-9.7h6.2l-6.4 7.2v2.5h11.3v-3h-6.4l6.4-7.2V23h-11.1zm12.3 0h6.1l-6.4 7.2v2.5H152v-3h-6.4l6.4-7.2V23h-11zm25.9 9.7H163l-1-2.3h-4.9l-1 2.3h-3.6l5.4-12.8h3.4zm-5.8-5-1.4-3.6-1.4 3.6zm-55.9 5h3.9l-5.6-7.4 4.8-5.3H104l-4.4 5v-5H96v12.7h3.5v-2.9l1.8-2z" class="uuid-79f038f7-3a38-462a-bb8b-0fa6088af2cc"/></svg>