<?xml version="1.0" standalone="no"?>
<!DOCTYPE svg PUBLIC "-//W3C//DTD SVG 20010904//EN"
 "http://www.w3.org/TR/2001/REC-SVG-20010904/DTD/svg10.dtd">
<svg version="1.0" xmlns="http://www.w3.org/2000/svg"
 width="500.000000pt" height="500.000000pt" viewBox="0 0 500.000000 500.000000"
 preserveAspectRatio="xMidYMid meet">
<metadata>
Created by potrace 1.11, written by Peter Selinger 2001-2013
</metadata>
<g transform="translate(0.000000,500.000000) scale(0.100000,-0.100000)"
fill="#000000" stroke="none">
<path d="M860 2508 l0 -2493 34 35 c18 19 757 862 1640 1874 l1607 1838 -42
37 c-648 560 -1470 956 -2319 1115 -252 48 -625 86 -836 86 l-84 0 0 -2492z
m500 2132 c614 -63 1229 -261 1790 -577 113 -64 426 -268 485 -317 l30 -24
-21 -24 c-12 -12 -556 -635 -1209 -1383 -653 -748 -1201 -1373 -1216 -1390
l-29 -30 0 1882 0 1882 33 -4 c17 -3 79 -9 137 -15z"/>
<path d="M1280 4270 c0 -28 2 -30 40 -30 l40 0 0 -235 0 -235 30 0 30 0 0 235
0 235 40 0 c38 0 40 2 40 30 l0 30 -110 0 -110 0 0 -30z"/>
<path d="M1550 4035 l0 -265 30 0 30 0 0 120 0 120 50 0 50 0 0 -120 0 -120
30 0 30 0 0 265 0 265 -30 0 -30 0 0 -115 0 -115 -50 0 -50 0 0 115 0 115 -30
0 -30 0 0 -265z"/>
<path d="M1840 4035 l0 -265 80 0 80 0 0 30 c0 29 -1 30 -50 30 l-50 0 0 90 0
90 50 0 c49 0 50 1 50 30 0 29 -1 30 -50 30 l-50 0 0 85 0 85 50 0 c49 0 50 1
50 30 l0 30 -80 0 -80 0 0 -265z"/>
<path d="M1333 3706 c-45 -20 -53 -61 -52 -261 0 -186 9 -232 49 -252 52 -26
149 -7 164 32 3 9 6 111 6 225 0 202 -1 210 -22 235 -29 32 -98 42 -145 21z
m102 -256 l0 -205 -35 -3 c-56 -6 -60 8 -60 206 0 103 4 181 11 193 8 16 19
19 47 17 l37 -3 0 -205z"/>
<path d="M2033 3713 c-13 -2 -32 -16 -43 -30 -19 -24 -20 -40 -20 -229 0 -131
4 -212 11 -228 23 -50 139 -60 183 -16 19 18 21 32 21 138 l0 117 -52 3 -53 3
0 -30 c0 -26 4 -31 25 -31 24 0 25 -2 25 -72 0 -40 -4 -79 -9 -86 -5 -8 -23
-12 -47 -10 l-39 3 -3 194 c-3 209 0 221 49 221 34 0 49 -23 49 -74 0 -33 2
-36 30 -36 27 0 30 3 30 33 0 17 -5 49 -11 70 -15 54 -67 75 -146 60z"/>
<path d="M1570 3450 l0 -260 30 0 30 0 0 110 0 110 29 0 c51 0 61 -20 61 -126
l0 -94 30 0 30 0 0 99 c0 83 -3 103 -19 122 -18 23 -18 25 -3 43 13 14 17 38
17 113 0 91 -1 96 -28 119 -24 21 -38 24 -103 24 l-74 0 0 -260z m134 194 c11
-11 16 -35 16 -80 0 -84 -11 -104 -55 -104 l-35 0 0 100 0 100 29 0 c16 0 37
-7 45 -16z"/>
<path d="M1840 3450 l0 -260 30 0 30 0 0 260 0 260 -30 0 -30 0 0 -260z"/>
<path d="M2250 3450 l0 -260 30 0 30 0 0 260 0 260 -30 0 -30 0 0 -260z"/>
<path d="M2380 3450 l0 -260 30 0 30 0 2 183 3 182 41 -180 41 -180 36 -3 37
-3 0 260 0 261 -25 0 -25 0 0 -177 c0 -97 -2 -174 -5 -172 -2 3 -20 75 -40
160 -48 206 -40 189 -86 189 l-39 0 0 -260z"/>
<path d="M2740 3701 c0 -12 -69 -462 -75 -488 -5 -20 -1 -23 25 -23 27 0 30 4
36 40 l7 40 47 0 48 0 7 -40 c6 -36 10 -40 36 -40 28 0 30 2 24 33 -3 17 -19
120 -35 227 -16 107 -32 210 -35 228 -6 30 -9 32 -45 32 -22 0 -40 -4 -40 -9z
m59 -218 c7 -54 15 -110 18 -125 5 -27 4 -28 -37 -28 -40 0 -41 1 -36 28 3 15
11 71 17 125 7 53 15 97 19 97 4 0 12 -44 19 -97z"/>
<path d="M2960 3450 l0 -260 80 0 c79 0 80 0 80 25 0 23 -3 25 -50 25 l-50 0
0 235 0 235 -30 0 -30 0 0 -260z"/>
</g>
</svg>
